<mxfile host="Electron" agent="Mozilla/5.0 (Windows NT 10.0; Win64; x64) AppleWebKit/537.36 (KHTML, like Gecko) draw.io/24.7.5 Chrome/126.0.6478.183 Electron/31.3.0 Safari/537.36" version="24.7.5">
  <diagram name="PÃ¡gina-1" id="UIeftsWu87LJPdhDEHMj">
    <mxGraphModel dx="1160" dy="785" grid="1" gridSize="10" guides="1" tooltips="1" connect="1" arrows="1" fold="1" page="1" pageScale="1" pageWidth="827" pageHeight="1169" math="0" shadow="0">
      <root>
        <mxCell id="0" />
        <mxCell id="1" parent="0" />
        <mxCell id="zCQDVQjX0hS7iobzu-tb-1" value="Interprete" style="swimlane;fontStyle=1;align=center;verticalAlign=top;childLayout=stackLayout;horizontal=1;startSize=26;horizontalStack=0;resizeParent=1;resizeParentMax=0;resizeLast=0;collapsible=1;marginBottom=0;whiteSpace=wrap;html=1;" vertex="1" parent="1">
          <mxGeometry x="329" y="10" width="190" height="216" as="geometry" />
        </mxCell>
        <mxCell id="zCQDVQjX0hS7iobzu-tb-2" value="-GestionVariables" style="text;strokeColor=none;fillColor=none;align=left;verticalAlign=top;spacingLeft=4;spacingRight=4;overflow=hidden;rotatable=0;points=[[0,0.5],[1,0.5]];portConstraint=eastwest;whiteSpace=wrap;html=1;" vertex="1" parent="zCQDVQjX0hS7iobzu-tb-1">
          <mxGeometry y="26" width="190" height="26" as="geometry" />
        </mxCell>
        <mxCell id="zCQDVQjX0hS7iobzu-tb-24" value="-AnalizadorLexico" style="text;strokeColor=none;fillColor=none;align=left;verticalAlign=top;spacingLeft=4;spacingRight=4;overflow=hidden;rotatable=0;points=[[0,0.5],[1,0.5]];portConstraint=eastwest;whiteSpace=wrap;html=1;" vertex="1" parent="zCQDVQjX0hS7iobzu-tb-1">
          <mxGeometry y="52" width="190" height="26" as="geometry" />
        </mxCell>
        <mxCell id="zCQDVQjX0hS7iobzu-tb-25" value="-Queue&amp;lt;Expresion&amp;gt; expresiones" style="text;strokeColor=none;fillColor=none;align=left;verticalAlign=top;spacingLeft=4;spacingRight=4;overflow=hidden;rotatable=0;points=[[0,0.5],[1,0.5]];portConstraint=eastwest;whiteSpace=wrap;html=1;" vertex="1" parent="zCQDVQjX0hS7iobzu-tb-1">
          <mxGeometry y="78" width="190" height="26" as="geometry" />
        </mxCell>
        <mxCell id="zCQDVQjX0hS7iobzu-tb-26" value="-ejecutando: bool" style="text;strokeColor=none;fillColor=none;align=left;verticalAlign=top;spacingLeft=4;spacingRight=4;overflow=hidden;rotatable=0;points=[[0,0.5],[1,0.5]];portConstraint=eastwest;whiteSpace=wrap;html=1;" vertex="1" parent="zCQDVQjX0hS7iobzu-tb-1">
          <mxGeometry y="104" width="190" height="26" as="geometry" />
        </mxCell>
        <mxCell id="zCQDVQjX0hS7iobzu-tb-3" value="" style="line;strokeWidth=1;fillColor=none;align=left;verticalAlign=middle;spacingTop=-1;spacingLeft=3;spacingRight=3;rotatable=0;labelPosition=right;points=[];portConstraint=eastwest;strokeColor=inherit;" vertex="1" parent="zCQDVQjX0hS7iobzu-tb-1">
          <mxGeometry y="130" width="190" height="8" as="geometry" />
        </mxCell>
        <mxCell id="zCQDVQjX0hS7iobzu-tb-23" value="main(String[] args)" style="text;strokeColor=none;fillColor=none;align=left;verticalAlign=top;spacingLeft=4;spacingRight=4;overflow=hidden;rotatable=0;points=[[0,0.5],[1,0.5]];portConstraint=eastwest;whiteSpace=wrap;html=1;" vertex="1" parent="zCQDVQjX0hS7iobzu-tb-1">
          <mxGeometry y="138" width="190" height="26" as="geometry" />
        </mxCell>
        <mxCell id="zCQDVQjX0hS7iobzu-tb-4" value="ejecutarCodigo()" style="text;strokeColor=none;fillColor=none;align=left;verticalAlign=top;spacingLeft=4;spacingRight=4;overflow=hidden;rotatable=0;points=[[0,0.5],[1,0.5]];portConstraint=eastwest;whiteSpace=wrap;html=1;" vertex="1" parent="zCQDVQjX0hS7iobzu-tb-1">
          <mxGeometry y="164" width="190" height="26" as="geometry" />
        </mxCell>
        <mxCell id="zCQDVQjX0hS7iobzu-tb-5" value="evaluarExpresion()" style="text;strokeColor=none;fillColor=none;align=left;verticalAlign=top;spacingLeft=4;spacingRight=4;overflow=hidden;rotatable=0;points=[[0,0.5],[1,0.5]];portConstraint=eastwest;whiteSpace=wrap;html=1;" vertex="1" parent="zCQDVQjX0hS7iobzu-tb-1">
          <mxGeometry y="190" width="190" height="26" as="geometry" />
        </mxCell>
        <mxCell id="zCQDVQjX0hS7iobzu-tb-6" value="Expresion" style="swimlane;fontStyle=0;childLayout=stackLayout;horizontal=1;startSize=26;fillColor=none;horizontalStack=0;resizeParent=1;resizeParentMax=0;resizeLast=0;collapsible=1;marginBottom=0;whiteSpace=wrap;html=1;" vertex="1" parent="1">
          <mxGeometry x="329" y="320" width="170" height="112" as="geometry" />
        </mxCell>
        <mxCell id="zCQDVQjX0hS7iobzu-tb-32" value="-tipo" style="text;strokeColor=none;fillColor=none;align=left;verticalAlign=top;spacingLeft=4;spacingRight=4;overflow=hidden;rotatable=0;points=[[0,0.5],[1,0.5]];portConstraint=eastwest;whiteSpace=wrap;html=1;" vertex="1" parent="zCQDVQjX0hS7iobzu-tb-6">
          <mxGeometry y="26" width="170" height="26" as="geometry" />
        </mxCell>
        <mxCell id="zCQDVQjX0hS7iobzu-tb-33" value="-List &amp;lt;Object&amp;gt; operandos" style="text;strokeColor=none;fillColor=none;align=left;verticalAlign=top;spacingLeft=4;spacingRight=4;overflow=hidden;rotatable=0;points=[[0,0.5],[1,0.5]];portConstraint=eastwest;whiteSpace=wrap;html=1;" vertex="1" parent="zCQDVQjX0hS7iobzu-tb-6">
          <mxGeometry y="52" width="170" height="26" as="geometry" />
        </mxCell>
        <mxCell id="zCQDVQjX0hS7iobzu-tb-30" value="" style="line;strokeWidth=1;fillColor=none;align=left;verticalAlign=middle;spacingTop=-1;spacingLeft=3;spacingRight=3;rotatable=0;labelPosition=right;points=[];portConstraint=eastwest;strokeColor=inherit;" vertex="1" parent="zCQDVQjX0hS7iobzu-tb-6">
          <mxGeometry y="78" width="170" height="8" as="geometry" />
        </mxCell>
        <mxCell id="zCQDVQjX0hS7iobzu-tb-7" value="evaluar()" style="text;strokeColor=none;fillColor=none;align=left;verticalAlign=top;spacingLeft=4;spacingRight=4;overflow=hidden;rotatable=0;points=[[0,0.5],[1,0.5]];portConstraint=eastwest;whiteSpace=wrap;html=1;" vertex="1" parent="zCQDVQjX0hS7iobzu-tb-6">
          <mxGeometry y="86" width="170" height="26" as="geometry" />
        </mxCell>
        <mxCell id="zCQDVQjX0hS7iobzu-tb-10" value="Funcion" style="swimlane;fontStyle=1;align=center;verticalAlign=top;childLayout=stackLayout;horizontal=1;startSize=26;horizontalStack=0;resizeParent=1;resizeParentMax=0;resizeLast=0;collapsible=1;marginBottom=0;whiteSpace=wrap;html=1;" vertex="1" parent="1">
          <mxGeometry x="300" y="503" width="160" height="164" as="geometry" />
        </mxCell>
        <mxCell id="zCQDVQjX0hS7iobzu-tb-38" value="-List&amp;lt;String&amp;gt; parametros" style="text;strokeColor=none;fillColor=none;align=left;verticalAlign=top;spacingLeft=4;spacingRight=4;overflow=hidden;rotatable=0;points=[[0,0.5],[1,0.5]];portConstraint=eastwest;whiteSpace=wrap;html=1;" vertex="1" parent="zCQDVQjX0hS7iobzu-tb-10">
          <mxGeometry y="26" width="160" height="26" as="geometry" />
        </mxCell>
        <mxCell id="zCQDVQjX0hS7iobzu-tb-39" value="+ item: attribute" style="text;strokeColor=none;fillColor=none;align=left;verticalAlign=top;spacingLeft=4;spacingRight=4;overflow=hidden;rotatable=0;points=[[0,0.5],[1,0.5]];portConstraint=eastwest;whiteSpace=wrap;html=1;" vertex="1" parent="zCQDVQjX0hS7iobzu-tb-10">
          <mxGeometry y="52" width="160" height="26" as="geometry" />
        </mxCell>
        <mxCell id="zCQDVQjX0hS7iobzu-tb-37" value="-expresion" style="text;strokeColor=none;fillColor=none;align=left;verticalAlign=top;spacingLeft=4;spacingRight=4;overflow=hidden;rotatable=0;points=[[0,0.5],[1,0.5]];portConstraint=eastwest;whiteSpace=wrap;html=1;" vertex="1" parent="zCQDVQjX0hS7iobzu-tb-10">
          <mxGeometry y="78" width="160" height="26" as="geometry" />
        </mxCell>
        <mxCell id="zCQDVQjX0hS7iobzu-tb-12" value="" style="line;strokeWidth=1;fillColor=none;align=left;verticalAlign=middle;spacingTop=-1;spacingLeft=3;spacingRight=3;rotatable=0;labelPosition=right;points=[];portConstraint=eastwest;strokeColor=inherit;" vertex="1" parent="zCQDVQjX0hS7iobzu-tb-10">
          <mxGeometry y="104" width="160" height="8" as="geometry" />
        </mxCell>
        <mxCell id="zCQDVQjX0hS7iobzu-tb-13" value="ejecutar()" style="text;strokeColor=none;fillColor=none;align=left;verticalAlign=top;spacingLeft=4;spacingRight=4;overflow=hidden;rotatable=0;points=[[0,0.5],[1,0.5]];portConstraint=eastwest;whiteSpace=wrap;html=1;" vertex="1" parent="zCQDVQjX0hS7iobzu-tb-10">
          <mxGeometry y="112" width="160" height="26" as="geometry" />
        </mxCell>
        <mxCell id="zCQDVQjX0hS7iobzu-tb-14" value="definir()" style="text;strokeColor=none;fillColor=none;align=left;verticalAlign=top;spacingLeft=4;spacingRight=4;overflow=hidden;rotatable=0;points=[[0,0.5],[1,0.5]];portConstraint=eastwest;whiteSpace=wrap;html=1;" vertex="1" parent="zCQDVQjX0hS7iobzu-tb-10">
          <mxGeometry y="138" width="160" height="26" as="geometry" />
        </mxCell>
        <mxCell id="zCQDVQjX0hS7iobzu-tb-15" value="AnalizadorLexico" style="swimlane;fontStyle=0;childLayout=stackLayout;horizontal=1;startSize=26;fillColor=none;horizontalStack=0;resizeParent=1;resizeParentMax=0;resizeLast=0;collapsible=1;marginBottom=0;whiteSpace=wrap;html=1;" vertex="1" parent="1">
          <mxGeometry x="540" y="320" width="140" height="138" as="geometry" />
        </mxCell>
        <mxCell id="zCQDVQjX0hS7iobzu-tb-28" value="-codigo" style="text;strokeColor=none;fillColor=none;align=left;verticalAlign=top;spacingLeft=4;spacingRight=4;overflow=hidden;rotatable=0;points=[[0,0.5],[1,0.5]];portConstraint=eastwest;whiteSpace=wrap;html=1;" vertex="1" parent="zCQDVQjX0hS7iobzu-tb-15">
          <mxGeometry y="26" width="140" height="26" as="geometry" />
        </mxCell>
        <mxCell id="zCQDVQjX0hS7iobzu-tb-29" value="-List&amp;lt;String&amp;gt; tokens" style="text;strokeColor=none;fillColor=none;align=left;verticalAlign=top;spacingLeft=4;spacingRight=4;overflow=hidden;rotatable=0;points=[[0,0.5],[1,0.5]];portConstraint=eastwest;whiteSpace=wrap;html=1;" vertex="1" parent="zCQDVQjX0hS7iobzu-tb-15">
          <mxGeometry y="52" width="140" height="26" as="geometry" />
        </mxCell>
        <mxCell id="zCQDVQjX0hS7iobzu-tb-27" value="" style="line;strokeWidth=1;fillColor=none;align=left;verticalAlign=middle;spacingTop=-1;spacingLeft=3;spacingRight=3;rotatable=0;labelPosition=right;points=[];portConstraint=eastwest;strokeColor=inherit;" vertex="1" parent="zCQDVQjX0hS7iobzu-tb-15">
          <mxGeometry y="78" width="140" height="8" as="geometry" />
        </mxCell>
        <mxCell id="zCQDVQjX0hS7iobzu-tb-16" value="generarTokens()" style="text;strokeColor=none;fillColor=none;align=left;verticalAlign=top;spacingLeft=4;spacingRight=4;overflow=hidden;rotatable=0;points=[[0,0.5],[1,0.5]];portConstraint=eastwest;whiteSpace=wrap;html=1;" vertex="1" parent="zCQDVQjX0hS7iobzu-tb-15">
          <mxGeometry y="86" width="140" height="26" as="geometry" />
        </mxCell>
        <mxCell id="zCQDVQjX0hS7iobzu-tb-17" value="analizar()" style="text;strokeColor=none;fillColor=none;align=left;verticalAlign=top;spacingLeft=4;spacingRight=4;overflow=hidden;rotatable=0;points=[[0,0.5],[1,0.5]];portConstraint=eastwest;whiteSpace=wrap;html=1;" vertex="1" parent="zCQDVQjX0hS7iobzu-tb-15">
          <mxGeometry y="112" width="140" height="26" as="geometry" />
        </mxCell>
        <mxCell id="zCQDVQjX0hS7iobzu-tb-19" value="GestionVariables" style="swimlane;fontStyle=0;childLayout=stackLayout;horizontal=1;startSize=26;fillColor=none;horizontalStack=0;resizeParent=1;resizeParentMax=0;resizeLast=0;collapsible=1;marginBottom=0;whiteSpace=wrap;html=1;" vertex="1" parent="1">
          <mxGeometry x="60" y="320" width="200" height="164" as="geometry" />
        </mxCell>
        <mxCell id="zCQDVQjX0hS7iobzu-tb-35" value="-Map&amp;lt;String, Object&amp;gt; variables" style="text;strokeColor=none;fillColor=none;align=left;verticalAlign=top;spacingLeft=4;spacingRight=4;overflow=hidden;rotatable=0;points=[[0,0.5],[1,0.5]];portConstraint=eastwest;whiteSpace=wrap;html=1;" vertex="1" parent="zCQDVQjX0hS7iobzu-tb-19">
          <mxGeometry y="26" width="200" height="26" as="geometry" />
        </mxCell>
        <mxCell id="zCQDVQjX0hS7iobzu-tb-36" value="-MapString, Funcion&amp;gt;&amp;nbsp; funciones" style="text;strokeColor=none;fillColor=none;align=left;verticalAlign=top;spacingLeft=4;spacingRight=4;overflow=hidden;rotatable=0;points=[[0,0.5],[1,0.5]];portConstraint=eastwest;whiteSpace=wrap;html=1;" vertex="1" parent="zCQDVQjX0hS7iobzu-tb-19">
          <mxGeometry y="52" width="200" height="26" as="geometry" />
        </mxCell>
        <mxCell id="zCQDVQjX0hS7iobzu-tb-34" value="" style="line;strokeWidth=1;fillColor=none;align=left;verticalAlign=middle;spacingTop=-1;spacingLeft=3;spacingRight=3;rotatable=0;labelPosition=right;points=[];portConstraint=eastwest;strokeColor=inherit;" vertex="1" parent="zCQDVQjX0hS7iobzu-tb-19">
          <mxGeometry y="78" width="200" height="8" as="geometry" />
        </mxCell>
        <mxCell id="zCQDVQjX0hS7iobzu-tb-20" value="definirVAriable()" style="text;strokeColor=none;fillColor=none;align=left;verticalAlign=top;spacingLeft=4;spacingRight=4;overflow=hidden;rotatable=0;points=[[0,0.5],[1,0.5]];portConstraint=eastwest;whiteSpace=wrap;html=1;" vertex="1" parent="zCQDVQjX0hS7iobzu-tb-19">
          <mxGeometry y="86" width="200" height="26" as="geometry" />
        </mxCell>
        <mxCell id="zCQDVQjX0hS7iobzu-tb-21" value="obtenerValor()" style="text;strokeColor=none;fillColor=none;align=left;verticalAlign=top;spacingLeft=4;spacingRight=4;overflow=hidden;rotatable=0;points=[[0,0.5],[1,0.5]];portConstraint=eastwest;whiteSpace=wrap;html=1;" vertex="1" parent="zCQDVQjX0hS7iobzu-tb-19">
          <mxGeometry y="112" width="200" height="26" as="geometry" />
        </mxCell>
        <mxCell id="zCQDVQjX0hS7iobzu-tb-22" value="+ field: type" style="text;strokeColor=none;fillColor=none;align=left;verticalAlign=top;spacingLeft=4;spacingRight=4;overflow=hidden;rotatable=0;points=[[0,0.5],[1,0.5]];portConstraint=eastwest;whiteSpace=wrap;html=1;" vertex="1" parent="zCQDVQjX0hS7iobzu-tb-19">
          <mxGeometry y="138" width="200" height="26" as="geometry" />
        </mxCell>
        <mxCell id="zCQDVQjX0hS7iobzu-tb-40" value="Use" style="endArrow=open;endSize=12;dashed=1;html=1;rounded=0;exitX=0.877;exitY=0.912;exitDx=0;exitDy=0;exitPerimeter=0;entryX=0.292;entryY=0.056;entryDx=0;entryDy=0;entryPerimeter=0;" edge="1" parent="1" source="zCQDVQjX0hS7iobzu-tb-5" target="zCQDVQjX0hS7iobzu-tb-15">
          <mxGeometry width="160" relative="1" as="geometry">
            <mxPoint x="340" y="250" as="sourcePoint" />
            <mxPoint x="500" y="250" as="targetPoint" />
          </mxGeometry>
        </mxCell>
        <mxCell id="zCQDVQjX0hS7iobzu-tb-41" value="Use" style="endArrow=open;endSize=12;dashed=1;html=1;rounded=0;exitX=0.225;exitY=1.154;exitDx=0;exitDy=0;exitPerimeter=0;entryX=0.901;entryY=-0.002;entryDx=0;entryDy=0;entryPerimeter=0;" edge="1" parent="1" source="zCQDVQjX0hS7iobzu-tb-5" target="zCQDVQjX0hS7iobzu-tb-19">
          <mxGeometry width="160" relative="1" as="geometry">
            <mxPoint x="506" y="234" as="sourcePoint" />
            <mxPoint x="591" y="338" as="targetPoint" />
          </mxGeometry>
        </mxCell>
        <mxCell id="zCQDVQjX0hS7iobzu-tb-42" value="Use" style="endArrow=open;endSize=12;dashed=1;html=1;rounded=0;exitX=0.465;exitY=1.132;exitDx=0;exitDy=0;exitPerimeter=0;entryX=0.301;entryY=0.02;entryDx=0;entryDy=0;entryPerimeter=0;" edge="1" parent="1" source="zCQDVQjX0hS7iobzu-tb-5" target="zCQDVQjX0hS7iobzu-tb-6">
          <mxGeometry width="160" relative="1" as="geometry">
            <mxPoint x="516" y="244" as="sourcePoint" />
            <mxPoint x="601" y="348" as="targetPoint" />
          </mxGeometry>
        </mxCell>
        <mxCell id="zCQDVQjX0hS7iobzu-tb-43" value="Use" style="endArrow=open;endSize=12;dashed=1;html=1;rounded=0;exitX=0.579;exitY=-0.004;exitDx=0;exitDy=0;exitPerimeter=0;entryX=0.468;entryY=0.78;entryDx=0;entryDy=0;entryPerimeter=0;" edge="1" parent="1" source="zCQDVQjX0hS7iobzu-tb-10" target="zCQDVQjX0hS7iobzu-tb-7">
          <mxGeometry width="160" relative="1" as="geometry">
            <mxPoint x="350" y="330" as="sourcePoint" />
            <mxPoint x="510" y="330" as="targetPoint" />
          </mxGeometry>
        </mxCell>
        <mxCell id="zCQDVQjX0hS7iobzu-tb-44" value="" style="endArrow=open;endFill=1;endSize=12;html=1;rounded=0;exitX=0.757;exitY=1.132;exitDx=0;exitDy=0;exitPerimeter=0;entryX=-0.029;entryY=-0.192;entryDx=0;entryDy=0;entryPerimeter=0;" edge="1" parent="1" source="zCQDVQjX0hS7iobzu-tb-22" target="zCQDVQjX0hS7iobzu-tb-38">
          <mxGeometry width="160" relative="1" as="geometry">
            <mxPoint x="350" y="330" as="sourcePoint" />
            <mxPoint x="510" y="330" as="targetPoint" />
          </mxGeometry>
        </mxCell>
      </root>
    </mxGraphModel>
  </diagram>
</mxfile>
